<svg xmlns="http://www.w3.org/2000/svg" width="18" height="18" viewBox="0 0 18 18">
  <path fill="#606060" d="M13.5,9 C13.4994005,8.66181057 13.3601265,8.33866579 13.11469,8.106 L6.12273,1.357 C5.63294731,0.872803688 4.84338133,0.877332334 4.35918501,1.36711501 C3.87498869,1.85689769 3.87951733,2.64646367 4.3693,3.13066 L10.4523,9.00244 L4.38913,14.84956 C4.0205325,15.2016541 3.90311166,15.7425251 4.09253306,16.2157628 C4.28195446,16.6890005 4.74014073,16.999475 5.24988,17 C5.56998297,17.0041708 5.87858072,16.8807533 6.10753,16.657 L13.11753,9.90187 C13.3624363,9.66581981 13.5005503,9.34014479 13.5,9 Z" transform="matrix(-1 0 0 1 17.499 0)"/>
</svg>
