<svg xmlns="http://www.w3.org/2000/svg" width="18" height="18" viewBox="0 0 18 18">
  <g fill="none" fill-rule="evenodd">
    <path fill="#606060" fill-rule="nonzero" d="M4.7637,10.0303 C4.5041,10.0303 4.2932,9.8194 4.2932,9.5596 L4.2952,8.501 C4.2952,8.2412 4.5061,8.0303 4.7656,8.0303 L13.2363,8.0303 C13.4954,8.0303 13.7068,8.2412 13.7068,8.501 L13.7048,9.5596 C13.7048,9.8194 13.4934,10.0303 13.2344,10.0303 L4.7637,10.0303 Z"/>
    <path fill="#606060" fill-rule="nonzero" d="M17.9799995,8.98999977 C17.9799995,4.02432345 13.9551766,-3.41060513e-13 8.98999977,-3.41060513e-13 C4.0248229,-3.41060513e-13 0,4.02432345 0,8.98999977 C0,13.9551766 4.0248229,17.9799995 8.98999977,17.9799995 C13.9551766,17.9799995 17.9799995,13.9551766 17.9799995,8.98999977 Z M1.4983333,8.98999977 C1.4983333,4.85250221 4.85200277,1.4983333 8.98999977,1.4983333 C13.1269979,1.4983333 16.4816662,4.85250221 16.4816662,8.98999977 C16.4816662,13.1279968 13.1269979,16.4816662 8.98999977,16.4816662 C4.85200277,16.4816662 1.4983333,13.1279968 1.4983333,8.98999977 Z"/>
  </g>
</svg>
