<svg xmlns="http://www.w3.org/2000/svg" width="18" height="18" viewBox="0 0 18 18">
  <g fill="none" fill-rule="evenodd">
    <path fill="#606060" stroke-width="10" fill-rule="nonzero" d="M17.9799995,8.98999977 C17.9799995,4.02432345 13.9551766,-3.41060513e-13 8.98999977,-3.41060513e-13 C4.0248229,-3.41060513e-13 0,4.02432345 0,8.98999977 C0,13.9551766 4.0248229,17.9799995 8.98999977,17.9799995 C13.9551766,17.9799995 17.9799995,13.9551766 17.9799995,8.98999977 Z M1.4983333,8.98999977 C1.4983333,4.85250221 4.85200277,1.4983333 8.98999977,1.4983333 C13.1269979,1.4983333 16.4816662,4.85250221 16.4816662,8.98999977 C16.4816662,13.1279968 13.1269979,16.4816662 8.98999977,16.4816662 C4.85200277,16.4816662 1.4983333,13.1279968 1.4983333,8.98999977 Z"/>
    <path fill="#606060" fill-rule="nonzero" d="M4.7637,10.0303 L8,10.0303 L8,13.2647 C8,13.5235 8.2109,13.7354 8.4707,13.7354 L9.5293,13.7373 C9.7891,13.7373 10,13.5254 10,13.2666 L10,10.0303 L13.2344,10.0303 C13.4934,10.0303 13.7048,9.8194 13.7048,9.5596 L13.7068,8.501 C13.7068,8.2412 13.4954,8.0303 13.2363,8.0303 L10,8.0303 L10,4.7959 C10,4.5362 9.7891,4.3252 9.5293,4.3252 L8.4707,4.3233 C8.2109,4.3233 8,4.5342 8,4.794 L8,8.0303 L4.7656,8.0303 C4.5061,8.0303 4.2952,8.2412 4.2952,8.501 L4.2932,9.5596 C4.2932,9.8194 4.5041,10.0303 4.7637,10.0303 Z"/>
  </g>
</svg>
