<svg xmlns="http://www.w3.org/2000/svg" width="18" height="18" viewBox="0 0 18 18">
  <g fill-rule="evenodd">
    <path fill="#000" fill-rule="nonzero" d="M4.54736842,8.20421053 L7.86315789,11.214 C7.76273684,11.3248421 7.67368421,11.4224211 7.60452632,11.4925263 C7.37322638,11.6705329 7.08330629,11.7547687 6.79263158,11.7284211 L6.66284211,11.7284211 C5.57953795,11.8297372 4.56846585,12.3161139 3.81315789,13.0992632 L3.08273684,12.4938947 C3.72573601,11.5700944 4.07386001,10.4732064 4.08126316,9.34768421 C4.05754912,9.03365498 4.14067981,8.72082985 4.31715789,8.46 C4.38947561,8.37086092 4.46631318,8.28548584 4.54736842,8.20421053 Z M12.366,0.307894737 L4.80031579,6.48663158 C4.80031579,6.48663158 3.60378947,7.52873684 3.47873684,7.65284211 C3.06661526,8.15261675 2.86725229,8.79425252 2.92357895,9.43957895 C2.87569015,10.3788578 2.5517465,11.2831318 1.99231579,12.0391579 L0.463263158,13.8391579 C0.396486166,13.8891947 0.368246009,13.9757258 0.39265136,14.0555206 C0.417056711,14.1353156 0.488868775,14.1912457 0.572210526,14.1953684 L3.20778947,14.9201053 C3.42623261,14.9624346 3.65162526,14.896018 3.81221053,14.742 L4.08694737,14.4284211 C4.74239854,13.6319686 5.65314274,13.086727 6.66473684,12.8851579 L6.79452632,12.8851579 C7.39740271,12.9171667 7.9880966,12.7070816 8.43536842,12.3015789 C8.54336842,12.1916842 8.68831579,12.0315789 8.84084211,11.8591579 C8.89957895,11.8364211 15.5529474,3.31389474 15.5529474,3.31389474 C15.7313983,3.10641218 15.8163907,2.83452376 15.7878819,2.56234553 C15.7593732,2.29016729 15.6198866,2.04179149 15.4023158,1.87578947 L13.8107368,0.351473684 C13.6290931,0.147297098 13.3713858,0.0269310411 13.0982292,0.01868616 C12.8250725,0.0104412695 12.5605749,0.115045238 12.3669474,0.307894737 L12.366,0.307894737 Z" transform="translate(0 2)"/>
    <path fill="#000" fill-rule="nonzero" d="M18,12.0408309 L10.2891523,12.0408309 C9.22644277,13.4447346 8.54485453,14.2552981 8.24438757,14.4725216 C7.77160847,14.6906384 7.69082256,14.8105244 6.79452632,14.8851579 C4.77418072,15.0533896 3.96551724,16.8678161 3.50574713,16.8678161 C3.72755029,17.5542684 4.49445333,17.9316579 5.80645626,17.9999846 L18,17.9999846 L18,12.0408309 Z" opacity=".2"/>
  </g>
</svg>
