<svg xmlns="http://www.w3.org/2000/svg" width="18" height="18" viewBox="0 0 18 18">
  <path fill="#000" d="M9.3065,14.066 C9.50174993,14.261191 9.81825007,14.261191 10.0135,14.066 L16.7945,7.2855 C16.989691,7.09025007 16.989691,6.77374993 16.7945,6.5785 L11.1375,0.9215 C10.9422501,0.726309031 10.6257499,0.726309031 10.4305,0.9215 L3.65,7.7 C3.45480903,7.89524993 3.45480903,8.21175007 3.65,8.407 L4.0035,8.7605 L0.8535,11.9105 C0.46289799,12.3009438 0.462768153,12.934106 0.85321,13.32471 L0.8535,13.325 L4.106,16.575 C4.35887874,16.8359492 4.70331068,16.9883527 5.0665,17 L16.75,17 C16.8880712,17 17,16.8880712 17,16.75 L17,16.25 C17,16.1119288 16.8880712,16 16.75,16 L6.6655,16 L8.953,13.7125 L9.3065,14.066 Z M5.45,15.8035 C5.25475007,15.998691 4.93824993,15.998691 4.743,15.8035 L1.559,12.6215 L4.709,9.4715 L8.2445,13.007 L5.45,15.8035 Z"/>
</svg>
