<svg xmlns="http://www.w3.org/2000/svg" xmlns:xlink="http://www.w3.org/1999/xlink" viewBox="-127 7301 18 18" width="18" height="18">
  <g id="S_C-Tool_Stickynote_18" >
    <path id="Path_501" fill="#000" data-name="Path 501" d="M6.509,2402.2a.25.25,0,0,1,.25-.25h8.5a.25.25,0,0,1,.25.25v.5a.25.25,0,0,1-.25.25h-8.5a.25.25,0,0,1-.25-.25Zm0,3a.25.25,0,0,1,.25-.25h6.5a.25.25,0,0,1,.25.25v.5a.25.25,0,0,1-.25.25h-6.5a.25.25,0,0,1-.25-.25Zm10.351-7.246-11.663,0a1.643,1.643,0,0,0-1.662,1.636l-.019,8.724a1.632,1.632,0,0,0,1.65,1.64H7.509v3.743a.207.207,0,0,0,.2.21.223.223,0,0,0,.153-.059l4.646-3.895h4.375a1.617,1.617,0,0,0,1.636-1.636l-.011-8.723A1.632,1.632,0,0,0,16.86,2397.958Z" transform="translate(-129.509 4905.046)"/>
  </g>
</svg>
