<svg xmlns="http://www.w3.org/2000/svg" xmlns:xlink="http://www.w3.org/1999/xlink" viewBox="-517 7301 18 18" width="18" height="18">
  <g id="S_C-Tool_Underline_18">
    <path id="Path_490" fill="#000" data-name="Path 490" d="M4.395,2171.986a.409.409,0,0,0-.409.409v2.864a.409.409,0,0,0,.409.409l1.2-.011a.408.408,0,0,0,.409-.409L6,2174H9v9H7.766a.409.409,0,0,0-.409.409l-.007,1.182a.409.409,0,0,0,.409.409h4.5a.409.409,0,0,0,.409-.409l-.008-1.182a.409.409,0,0,0-.409-.409H11v-9h3l.013,1.247a.409.409,0,0,0,.409.409l1.183.011a.409.409,0,0,0,.409-.409V2172.4a.409.409,0,0,0-.409-.409Z" transform="translate(-518 5131.014)"/>
    <path id="Path_492" fill="#000" data-name="Path 492" d="M4,2187.25a.25.25,0,0,1,.25-.25h11.5a.25.25,0,0,1,.25.25v.5a.25.25,0,0,1-.25.25H4.25a.25.25,0,0,1-.25-.25Z" transform="translate(-518 5131)"/>
  </g>
</svg>
