<svg xmlns="http://www.w3.org/2000/svg" xmlns:xlink="http://www.w3.org/1999/xlink" viewBox="-616 7301 18 18" width="18" height="18">
  <g id="S_C-Tool_Strikethru_18" >
    <g id="Group_95" data-name="Group 95" transform="translate(-616 7301)">
      <path id="Path_487" fill="#000" data-name="Path 487" d="M11,2107v2H9.766a.409.409,0,0,0-.409.409l-.007,1.182a.409.409,0,0,0,.409.409h4.5a.409.409,0,0,0,.409-.409l-.008-1.182a.409.409,0,0,0-.409-.409H13v-2Zm-4.605-9.014a.409.409,0,0,0-.409.409v2.864a.409.409,0,0,0,.409.409l1.2-.011a.408.408,0,0,0,.409-.409L8,2100h3v4h2v-4h3l.013,1.247a.409.409,0,0,0,.409.409l1.183.011a.409.409,0,0,0,.409-.409V2098.4a.409.409,0,0,0-.409-.409Z" transform="translate(-3 -2095.986)"/>
      <path id="Path_489" fill="#000" data-name="Path 489" d="M6,2105.25a.25.25,0,0,1,.25-.25h11.5a.25.25,0,0,1,.25.25v.5a.25.25,0,0,1-.25.25H6.25a.25.25,0,0,1-.25-.25Z" transform="translate(-3 -2096)"/>
    </g>
  </g>
</svg>
