<svg xmlns="http://www.w3.org/2000/svg" xmlns:xlink="http://www.w3.org/1999/xlink" viewBox="-322 7301 18 18" width="18" height="18">
  <g id="S_C-Tool_Draw_18">
    <path id="Path_496" fill="#000" data-name="Path 496" d="M14.758,2309.965l-8.313,8.321a.426.426,0,0,0-.11.184l-1.187,3.936a.218.218,0,0,0,.135.278.215.215,0,0,0,.143,0c0,.02,3.326-.961,3.948-1.208a.509.509,0,0,0,.184-.11l8.3-8.3ZM6.13,2321.69l1.018-2.812,1.8,1.794Zm13.579-11.245-2.321-2.318a.533.533,0,0,0-.381-.157h-.019a.624.624,0,0,0-.408.18l-1.138,1.132,3.1,3.1,1.138-1.133a.6.6,0,0,0,.177-.387.529.529,0,0,0-.153-.418Z" transform="translate(-325.5 4995)"/>
  </g>
</svg>
