<svg xmlns="http://www.w3.org/2000/svg" xmlns:xlink="http://www.w3.org/1999/xlink" viewBox="-420 7301 18 18" width="18" height="18">
  <g id="S_C-Tool_Add_Text_18">
    <path id="Path_493" data-name="Path 493" fill="#000" d="M5.395,2250.986a.409.409,0,0,0-.409.409v2.864a.409.409,0,0,0,.409.409l1.2-.011a.408.408,0,0,0,.409-.409L7,2253h3v9H8.766a.409.409,0,0,0-.409.409l-.007,1.182a.409.409,0,0,0,.409.409h4.5a.409.409,0,0,0,.409-.409l-.008-1.182a.409.409,0,0,0-.409-.409H12v-9h3l.013,1.247a.409.409,0,0,0,.409.409l1.183.011a.409.409,0,0,0,.409-.409V2251.4a.409.409,0,0,0-.409-.409Z" transform="translate(-422.014 5052.014)"/>
  </g>
</svg>
